<svg width="46" height="46" viewBox="0 0 46 46" fill="none" xmlns="http://www.w3.org/2000/svg">
<path d="M0.0530078 21.4541C4.51177 31.6971 15.8256 33.4147 29.3286 24.7327C35.5566 30.4971 37.1082 37.3306 31.9114 44.2094C29.1706 45.3623 26.16 46 23 46C10.2975 46 0 35.7025 0 23C0 22.4807 0.0190469 21.9654 0.0530078 21.4543V21.4541ZM21.0869 17.008C23.1004 8.61745 28.7227 3.80452 37.5603 5.19584C42.7119 9.41383 46.0002 15.8226 46.0002 23C46.0002 32.0554 40.7664 39.8869 33.1597 43.6384C40.0698 33.7944 34.4229 23.4084 21.0869 17.008ZM23.0002 0C27.9299 0 32.4967 1.5516 36.2408 4.19211C23.6715 2.73089 17.7359 13.2079 18.565 27.6762C10.3978 30.1812 3.74433 28.3355 0.228203 19.7615C1.80227 8.59248 11.397 0 23 0H23.0002Z" fill="#246833"/>
</svg>
